<?xml version="1.0" encoding="utf-8"?>
<!-- Generator: Adobe Illustrator 19.0.0, SVG Export Plug-In . SVG Version: 6.00 Build 0)  -->
<svg version="1.1" xmlns="http://www.w3.org/2000/svg" xmlns:xlink="http://www.w3.org/1999/xlink" x="0px" y="0px"
	 viewBox="0 0 612 792" style="enable-background:new 0 0 612 792;" xml:space="preserve">
<style type="text/css">
	.st0{fill:none;stroke:#000000;stroke-width:2;stroke-miterlimit:10;}
	.st1{font-family:'MyriadPro-Regular';}
	.st2{font-size:17.5837px;}
</style>
<g id="Layer_1">
	<rect id="border" x="41.1" y="329.9" class="st0" width="278.9" height="183.1"/>
</g>
<g id="driver">
	<rect id="XMLID_1_" x="59.7" y="335" class="st0" width="46.3" height="78"/>
	<text id="XMLID_2_" transform="matrix(0 -0.8433 1 0 91.376 392.5791)" class="st1 st2">Driver</text>
</g>
<g id="seat1">
	<rect id="XMLID_6_" x="59.7" y="469" class="st0" width="46.3" height="38.7"/>
</g>
<g id="seat2">
	<rect id="XMLID_3_" x="59.7" y="421.9" class="st0" width="46.3" height="38.7"/>
</g>
<g id="seat_3">
	<rect id="XMLID_18_" x="129.3" y="469" class="st0" width="39" height="39.7"/>
</g>
<g id="seat_4">
	<rect id="XMLID_26_" x="129.3" y="421.5" class="st0" width="39" height="39.5"/>
</g>
<g id="seat_5">
	<rect id="XMLID_12_" x="129.3" y="380.3" class="st0" width="39" height="36"/>
</g>
<g id="seat_6">
	<rect id="XMLID_23_" x="129.7" y="336.9" class="st0" width="37.7" height="35.5"/>
</g>
<g id="seat_7">
	<rect id="XMLID_4_" x="187" y="468.5" class="st0" width="39" height="39.7"/>
</g>
<g id="seat_8">
	<rect id="XMLID_20_" x="187" y="380.3" class="st0" width="39" height="36"/>
</g>
<g id="seat_9">
	<rect id="XMLID_8_" x="187" y="336.9" class="st0" width="39" height="35.5"/>
</g>
<g id="seat_10">
	<rect id="XMLID_16_" x="244.4" y="468.5" class="st0" width="39" height="39.7"/>
</g>
<g id="seat_11">
	<rect id="XMLID_14_" x="244.4" y="421.4" class="st0" width="39" height="39.7"/>
</g>
<g id="seat_12">
	<rect id="XMLID_11_" x="244.4" y="380.3" class="st0" width="39" height="35.5"/>
</g>
<g id="seat_13">
	<rect id="XMLID_9_" x="244.4" y="336.9" class="st0" width="39" height="35.5"/>
</g>
</svg>
